<?xml version="1.0" encoding="UTF-8" standalone="no"?>
<!-- Generator: Adobe Illustrator 15.1.0, SVG Export Plug-In . SVG Version: 6.00 Build 0)  -->

<svg
   xmlns:dc="http://purl.org/dc/elements/1.1/"
   xmlns:cc="http://creativecommons.org/ns#"
   xmlns:rdf="http://www.w3.org/1999/02/22-rdf-syntax-ns#"
   xmlns:svg="http://www.w3.org/2000/svg"
   xmlns="http://www.w3.org/2000/svg"
   xmlns:sodipodi="http://sodipodi.sourceforge.net/DTD/sodipodi-0.dtd"
   xmlns:inkscape="http://www.inkscape.org/namespaces/inkscape"
   version="1.1"
   id="LOGO"
   x="0px"
   y="0px"
   width="304.53412"
   height="120.44827"
   viewBox="0 0 304.53412 120.44826"
   enable-background="new 0 0 420 236"
   xml:space="preserve"
   inkscape:version="0.91 r13725"
   sodipodi:docname="D64logo_auf_weiss01.svg"><metadata
     id="metadata169"><rdf:RDF><cc:Work
         rdf:about=""><dc:format>image/svg+xml</dc:format><dc:type
           rdf:resource="http://purl.org/dc/dcmitype/StillImage" /><dc:title></dc:title></cc:Work></rdf:RDF></metadata><defs
     id="defs167" /><sodipodi:namedview
     pagecolor="#ffffff"
     bordercolor="#666666"
     borderopacity="1"
     objecttolerance="10"
     gridtolerance="10"
     guidetolerance="10"
     inkscape:pageopacity="0"
     inkscape:pageshadow="2"
     inkscape:window-width="1920"
     inkscape:window-height="1017"
     id="namedview165"
     showgrid="false"
     fit-margin-top="10"
     fit-margin-bottom="10"
     fit-margin-right="10"
     fit-margin-left="10"
     inkscape:zoom="0.84285714"
     inkscape:cx="152.26712"
     inkscape:cy="60.6107"
     inkscape:window-x="0"
     inkscape:window-y="30"
     inkscape:window-maximized="1"
     inkscape:current-layer="LOGO" /><g
     id="g3"
     transform="translate(-57.732883,-58.162437)"><g
       id="g5"><g
         id="g7"><path
           d="m 197.929,143.918 7.148,-11.25 -6.81,0 0,-1.016 8.107,0 0,1.016 -7.149,11.25 6.997,0 0,1.016 -8.294,0 0,-1.016 z"
           id="path9"
           inkscape:connector-curvature="0"
           style="fill:#6d6e71" /><path
           d="m 208.26,138.066 c 0,-2.088 1.506,-3.536 3.48,-3.536 1.974,0 3.479,1.354 3.479,3.518 l 0,1.429 -5.868,0 0,1.788 c 0,1.75 0.92,2.804 2.389,2.804 1.393,0 2.388,-0.96 2.388,-2.56 l 1.092,0 c 0,2.089 -1.506,3.518 -3.479,3.518 -1.975,0 -3.48,-1.374 -3.48,-3.536 l 0,-3.425 z m 5.868,0.433 0,-0.451 c 0,-1.6 -0.995,-2.54 -2.388,-2.54 -1.469,0 -2.389,1.055 -2.389,2.822 l 0,0.169 4.777,0 z"
           id="path11"
           inkscape:connector-curvature="0"
           style="fill:#6d6e71" /><path
           d="m 218.233,134.623 1.092,0 0,0.922 c 1.275,-0.846 1.823,-1.015 2.52,-1.015 2.105,0 3.349,1.392 3.349,3.404 l 0,6.999 -1.092,0 0,-6.848 c 0,-1.506 -0.789,-2.578 -2.391,-2.578 -1.596,0 -2.386,1.072 -2.386,2.578 l 0,6.848 -1.092,0 0,-10.31 z"
           id="path13"
           inkscape:connector-curvature="0"
           style="fill:#6d6e71" /><path
           d="m 228.64,135.791 -1.092,0 0,-0.961 1.092,0 0,-2.464 1.089,0 0,2.464 1.806,0 0,0.941 -1.806,0 0,6.17 c 0,1.167 0.472,2.05 1.975,2.05 l 0,1.035 c -1.993,0 -3.063,-1.09 -3.063,-3.085 l 0,-6.15 z"
           id="path15"
           inkscape:connector-curvature="0"
           style="fill:#6d6e71" /><path
           d="m 234.15,134.623 1.092,0 0,1.111 c 1.147,-0.979 1.713,-1.298 2.766,-1.298 l 0,1.259 c -0.169,-0.037 -0.339,-0.055 -0.508,-0.055 -1.334,0 -2.258,0.922 -2.258,2.651 l 0,6.642 -1.092,0 0,-10.31 z"
           id="path17"
           inkscape:connector-curvature="0"
           style="fill:#6d6e71" /><path
           d="m 239.799,134.623 1.089,0 0,6.849 c 0,1.505 0.792,2.576 2.391,2.576 1.599,0 2.389,-1.071 2.389,-2.576 l 0,-6.849 1.092,0 0,10.311 -1.092,0 0,-0.922 c -1.262,0.847 -1.825,1.015 -2.52,1.015 -2.108,0 -3.349,-1.391 -3.349,-3.404 l 0,-7 z"
           id="path19"
           inkscape:connector-curvature="0"
           style="fill:#6d6e71" /><path
           d="m 250.147,134.623 1.093,0 0,0.922 c 1.275,-0.846 1.823,-1.015 2.519,-1.015 1.298,0 2.258,0.527 2.822,1.411 1.673,-1.318 2.351,-1.411 3.047,-1.411 2.108,0 3.349,1.392 3.349,3.404 l 0,6.999 -1.092,0 0,-6.848 c 0,-1.506 -0.789,-2.578 -2.388,-2.578 -1.563,0 -2.389,1.016 -2.389,2.465 l 0,6.961 -1.092,0 0,-6.848 c 0,-1.506 -0.79,-2.578 -2.391,-2.578 -1.597,0 -2.386,1.072 -2.386,2.578 l 0,6.848 -1.093,0 0,-10.31 z"
           id="path21"
           inkscape:connector-curvature="0"
           style="fill:#6d6e71" /><path
           d="m 271.129,135.809 -1.092,0 0,-0.979 1.092,0 0,-0.432 c 0,-1.9 0.941,-3.293 3.197,-3.293 l 0,0.979 c -1.729,0 -2.108,0.922 -2.108,2.371 l 0,0.375 1.921,0 0,0.941 -1.921,0 0,9.162 -1.089,0 0,-9.124 z"
           id="path23"
           inkscape:connector-curvature="0"
           style="fill:#6d6e71" /><path
           d="m 276.208,134.623 1.092,0 0,6.849 c 0,1.505 0.79,2.576 2.391,2.576 1.597,0 2.386,-1.071 2.386,-2.576 l 0,-6.849 1.092,0 0,10.311 -1.092,0 0,-0.922 c -1.257,0.847 -1.823,1.015 -2.52,1.015 -2.105,0 -3.349,-1.391 -3.349,-3.404 l 0,-7 z m 1.092,-3.235 1.24,0 0,1.242 -1.24,0 0,-1.242 z m 3.612,0 1.241,0 0,1.242 -1.241,0 0,-1.242 z"
           id="path25"
           inkscape:connector-curvature="0"
           style="fill:#6d6e71" /><path
           d="m 286.558,134.623 1.092,0 0,1.111 c 1.146,-0.979 1.711,-1.298 2.765,-1.298 l 0,1.259 c -0.17,-0.037 -0.339,-0.055 -0.508,-0.055 -1.334,0 -2.257,0.922 -2.257,2.651 l 0,6.642 -1.092,0 0,-10.31 z"
           id="path27"
           inkscape:connector-curvature="0"
           style="fill:#6d6e71" /><path
           d="m 199.15,151.918 4.799,0 c 2.501,0 4.155,1.431 4.155,4.12 l 0,5.043 c 0,2.689 -1.654,4.12 -4.155,4.12 l -4.799,0 0,-13.283 z m 4.741,12.267 c 1.957,0 3.085,-1.186 3.085,-3.197 l 0,-4.855 c 0,-2.012 -1.128,-3.197 -3.085,-3.197 l -3.611,0 0,11.25 3.611,0 z"
           id="path29"
           inkscape:connector-curvature="0"
           style="fill:#6d6e71" /><path
           d="m 211.212,151.467 1.243,0 0,1.242 -1.243,0 0,-1.242 z m 0.075,3.425 1.093,0 0,10.31 -1.093,0 0,-10.31 z"
           id="path31"
           inkscape:connector-curvature="0"
           style="fill:#6d6e71" /><path
           d="m 218.645,167.627 c 1.899,0 2.689,-1.035 2.689,-2.765 l 0,-0.584 c -1.259,0.848 -1.785,1.017 -2.484,1.017 -2.105,0 -3.385,-1.393 -3.385,-3.406 l 0,-3.687 c 0,-2.014 1.279,-3.405 3.385,-3.405 0.699,0 1.226,0.151 2.484,0.96 l 0,-0.865 1.092,0 0,10.064 c 0,2.332 -1.601,3.875 -4.062,3.629 l 0.281,-0.958 z m -2.087,-5.889 c 0,1.506 0.789,2.578 2.389,2.578 1.598,0 2.388,-1.072 2.388,-2.578 l 0,-3.386 c 0,-1.506 -0.79,-2.576 -2.388,-2.576 -1.6,0 -2.389,1.07 -2.389,2.576 l 0,3.386 z"
           id="path33"
           inkscape:connector-curvature="0"
           style="fill:#6d6e71" /><path
           d="m 225.813,151.467 1.243,0 0,1.242 -1.243,0 0,-1.242 z m 0.077,3.425 1.092,0 0,10.31 -1.092,0 0,-10.31 z"
           id="path35"
           inkscape:connector-curvature="0"
           style="fill:#6d6e71" /><path
           d="m 230.687,156.059 -1.089,0 0,-0.96 1.089,0 0,-2.465 1.092,0 0,2.465 1.807,0 0,0.939 -1.807,0 0,6.171 c 0,1.167 0.47,2.051 1.977,2.051 l 0,1.035 c -1.993,0 -3.068,-1.091 -3.068,-3.086 l 0,-6.15 z"
           id="path37"
           inkscape:connector-curvature="0"
           style="fill:#6d6e71" /><path
           d="m 241.58,164.034 c -0.901,0.865 -1.878,1.261 -2.765,1.261 -1.918,0 -3.273,-0.94 -3.273,-2.915 0,-1.863 1.582,-2.955 3.482,-2.955 l 2.556,0 0,-0.827 c 0,-1.768 -0.843,-2.821 -2.311,-2.821 -1.396,0 -2.314,0.94 -2.314,2.294 l -1.092,0 c 0,-1.861 1.467,-3.273 3.406,-3.273 1.993,0 3.402,1.392 3.402,3.537 l 0,6.867 -1.092,0 0,-1.168 z m 0,-3.668 -2.444,0 c -1.503,0 -2.501,0.789 -2.501,1.975 0,1.279 0.865,1.994 2.314,1.994 1.409,0 2.631,-0.997 2.631,-2.559 l 0,-1.41 z"
           id="path39"
           inkscape:connector-curvature="0"
           style="fill:#6d6e71" /><path
           d="m 245.873,151.467 1.092,0 0,13.734 -1.092,0 0,-13.734 z"
           id="path41"
           inkscape:connector-curvature="0"
           style="fill:#6d6e71" /><path
           d="m 249.978,158.334 c 0,-2.089 1.503,-3.537 3.479,-3.537 1.976,0 3.479,1.355 3.479,3.519 l 0,1.43 -5.869,0 0,1.786 c 0,1.75 0.923,2.804 2.391,2.804 1.391,0 2.39,-0.959 2.39,-2.559 l 1.089,0 c 0,2.089 -1.503,3.519 -3.479,3.519 -1.977,0 -3.479,-1.373 -3.479,-3.536 l 0,-3.426 z m 5.869,0.433 0,-0.451 c 0,-1.599 -0.999,-2.539 -2.39,-2.539 -1.468,0 -2.391,1.054 -2.391,2.821 l 0,0.169 4.781,0 z"
           id="path43"
           inkscape:connector-curvature="0"
           style="fill:#6d6e71" /><path
           d="m 259.948,154.892 1.092,0 0,0.922 c 1.28,-0.847 1.825,-1.017 2.52,-1.017 2.108,0 3.35,1.392 3.35,3.405 l 0,6.999 -1.089,0 0,-6.849 c 0,-1.506 -0.793,-2.576 -2.39,-2.576 -1.601,0 -2.391,1.07 -2.391,2.576 l 0,6.849 -1.092,0 0,-10.309 z"
           id="path45"
           inkscape:connector-curvature="0"
           style="fill:#6d6e71" /><path
           d="m 274.91,151.918 7.278,0 0,1.017 -6.149,0 0,4.76 4.455,0 0,1.016 -4.455,0 0,6.491 -1.129,0 0,-13.284 z"
           id="path47"
           inkscape:connector-curvature="0"
           style="fill:#6d6e71" /><path
           d="m 282.944,158.334 c 0,-2.089 1.508,-3.537 3.482,-3.537 1.972,0 3.479,1.374 3.479,3.537 l 0,3.425 c 0,2.087 -1.508,3.536 -3.479,3.536 -1.975,0 -3.482,-1.373 -3.482,-3.536 l 0,-3.425 z m 1.094,3.197 c 0,1.75 0.918,2.804 2.389,2.804 1.468,0 2.386,-1.054 2.386,-2.804 l 0,-2.934 c 0,-1.768 -0.918,-2.821 -2.386,-2.821 -1.471,0 -2.389,1.054 -2.389,2.821 l 0,2.934 z"
           id="path49"
           inkscape:connector-curvature="0"
           style="fill:#6d6e71" /><path
           d="m 292.918,154.892 1.092,0 0,1.11 c 1.147,-0.979 1.713,-1.299 2.767,-1.299 l 0,1.261 c -0.17,-0.037 -0.339,-0.058 -0.509,-0.058 -1.338,0 -2.258,0.924 -2.258,2.653 l 0,6.642 -1.092,0 0,-10.309 z"
           id="path51"
           inkscape:connector-curvature="0"
           style="fill:#6d6e71" /><path
           d="m 299.184,156.059 -1.089,0 0,-0.96 1.089,0 0,-2.465 1.092,0 0,2.465 1.807,0 0,0.939 -1.807,0 0,6.171 c 0,1.167 0.47,2.051 1.976,2.051 l 0,1.035 c -1.994,0 -3.067,-1.091 -3.067,-3.086 l 0,-6.15 z"
           id="path53"
           inkscape:connector-curvature="0"
           style="fill:#6d6e71" /><path
           d="m 303.757,161.927 1.093,0 0,0.357 c 0,1.167 0.978,2.051 2.387,2.051 1.412,0 2.391,-0.884 2.391,-2.051 0,-2.482 -5.305,-1.449 -5.305,-4.985 0,-1.372 1.223,-2.502 2.914,-2.502 1.694,0 2.916,1.073 2.916,2.445 l 0,0.264 -1.088,0 0,-0.207 c 0,-1.015 -0.924,-1.522 -1.828,-1.522 -0.902,0 -1.823,0.508 -1.823,1.522 0,2.465 5.306,1.524 5.306,4.985 0,1.92 -1.788,3.011 -3.482,3.011 -1.748,0 -3.479,-1.091 -3.479,-2.954 l 0,-0.414 z"
           id="path55"
           inkscape:connector-curvature="0"
           style="fill:#6d6e71" /><path
           d="m 312.978,158.334 c 0,-2.089 1.507,-3.537 3.482,-3.537 1.972,0 3.478,1.355 3.478,3.519 l -1.092,0 c 0,-1.599 -0.995,-2.539 -2.386,-2.539 -1.471,0 -2.391,1.054 -2.391,2.821 l 0,2.934 c 0,1.75 0.92,2.804 2.391,2.804 1.391,0 2.386,-0.959 2.386,-2.559 l 1.092,0 c 0,2.089 -1.506,3.519 -3.478,3.519 -1.976,0 -3.482,-1.373 -3.482,-3.536 l 0,-3.426 z"
           id="path57"
           inkscape:connector-curvature="0"
           style="fill:#6d6e71" /><path
           d="m 322.574,151.467 1.092,0 0,4.347 c 1.278,-0.847 1.823,-1.017 2.52,-1.017 2.108,0 3.349,1.392 3.349,3.405 l 0,6.999 -1.089,0 0,-6.849 c 0,-1.506 -0.793,-2.576 -2.391,-2.576 -1.6,0 -2.389,1.07 -2.389,2.576 l 0,6.849 -1.092,0 0,-13.734 z"
           id="path59"
           inkscape:connector-curvature="0"
           style="fill:#6d6e71" /><path
           d="m 332.734,154.892 1.092,0 0,1.11 c 1.147,-0.979 1.713,-1.299 2.766,-1.299 l 0,1.261 c -0.169,-0.037 -0.339,-0.058 -0.508,-0.058 -1.334,0 -2.258,0.924 -2.258,2.653 l 0,6.642 -1.092,0 0,-10.309 z"
           id="path61"
           inkscape:connector-curvature="0"
           style="fill:#6d6e71" /><path
           d="m 338.569,151.467 1.241,0 0,1.242 -1.241,0 0,-1.242 z m 0.077,3.425 1.089,0 0,10.31 -1.089,0 0,-10.31 z"
           id="path63"
           inkscape:connector-curvature="0"
           style="fill:#6d6e71" /><path
           d="m 343.443,156.059 -1.092,0 0,-0.96 1.092,0 0,-2.465 1.089,0 0,2.465 1.806,0 0,0.939 -1.806,0 0,6.171 c 0,1.167 0.472,2.051 1.975,2.051 l 0,1.035 c -1.993,0 -3.063,-1.091 -3.063,-3.086 l 0,-6.15 z"
           id="path65"
           inkscape:connector-curvature="0"
           style="fill:#6d6e71" /><path
           d="m 349.199,156.059 -1.088,0 0,-0.96 1.088,0 0,-2.465 1.092,0 0,2.465 1.807,0 0,0.939 -1.807,0 0,6.171 c 0,1.167 0.47,2.051 1.976,2.051 l 0,1.035 c -1.993,0 -3.067,-1.091 -3.067,-3.086 l 0,-6.15 z"
           id="path67"
           inkscape:connector-curvature="0"
           style="fill:#6d6e71" /></g><g
         id="g69"><path
           d="m 215.358,109.157 c 0,2.481 -1.984,4.518 -4.469,4.518 l -6.897,0 c -0.147,0 -0.246,-0.15 -0.246,-0.297 l 0,-28.238 c 0,-0.147 0.099,-0.297 0.246,-0.297 l 6.897,0 c 2.484,0 4.469,2.035 4.469,4.465 l 0,19.849 z m 4.913,0 0,-19.85 c 0,-5.158 -4.217,-9.326 -9.382,-9.326 l -9.575,0 c -1.39,0 -2.481,1.09 -2.481,2.429 l 0,33.695 c 0,1.34 1.092,2.431 2.481,2.431 l 9.575,0 c 5.166,0 9.382,-4.217 9.382,-9.379"
           id="path71"
           inkscape:connector-curvature="0"
           style="fill:#5c5d60" /><path
           d="m 235.554,103.75 c 0,-2.481 1.987,-4.467 4.466,-4.467 l 2.681,0 c 2.48,0 4.465,1.986 4.465,4.467 l 0,5.558 c 0,2.481 -1.984,4.465 -4.465,4.465 l -2.681,0 c -2.479,0 -4.466,-1.984 -4.466,-4.465 l 0,-5.558 z m 0,-8.486 0,-6.054 c 0,-2.481 1.987,-4.515 4.466,-4.515 l 2.681,0 c 1.735,0 3.278,0.99 4.021,2.53 0.595,1.19 2.033,1.684 3.275,1.092 1.19,-0.595 1.684,-2.034 1.089,-3.276 -1.589,-3.225 -4.809,-5.21 -8.385,-5.21 l -2.681,0 c -5.159,0 -9.379,4.217 -9.379,9.379 l 0,20.098 c 0,5.162 4.22,9.378 9.379,9.378 l 2.681,0 c 5.161,0 9.382,-4.217 9.382,-9.378 l 0,-5.558 c 0,-5.162 -4.221,-9.382 -9.382,-9.382 l -2.681,0 c -1.537,0 -2.976,0.399 -4.214,1.043 -0.148,0.051 -0.252,-0.049 -0.252,-0.147"
           id="path73"
           inkscape:connector-curvature="0"
           style="fill:#5c5d60" /><path
           d="m 280.758,108.912 c 0,0.669 -0.273,1.276 -0.712,1.716 -0.441,0.44 -1.049,0.713 -1.721,0.713 l -1.735,0 -1.736,0 c -0.073,0 -0.147,0.037 -0.202,0.094 -0.059,0.055 -0.095,0.13 -0.095,0.204 l 0,2.233 0,2.234 c 0,0.67 -0.273,1.277 -0.712,1.717 -0.441,0.44 -1.049,0.713 -1.721,0.713 -0.669,0 -1.275,-0.273 -1.718,-0.713 -0.441,-0.44 -0.714,-1.047 -0.714,-1.717 l 0,-2.234 0,-2.233 c 0,-0.073 -0.037,-0.148 -0.093,-0.204 -0.055,-0.057 -0.132,-0.094 -0.205,-0.094 l -5.972,0 -5.389,0 c -0.371,0 -0.745,-0.087 -1.082,-0.249 -0.335,-0.161 -0.632,-0.396 -0.855,-0.693 -0.225,-0.298 -0.384,-0.646 -0.467,-1.006 -0.079,-0.36 -0.079,-0.733 0.019,-1.08 l 3.45,-13.274 3.45,-13.272 c 0.175,-0.647 0.596,-1.168 1.135,-1.484 0.54,-0.316 1.199,-0.428 1.841,-0.253 0.57,0.149 1.03,0.471 1.35,0.893 0.315,0.42 0.49,0.941 0.49,1.487 0,0.1 0,0.2 -0.006,0.298 -0.007,0.1 -0.021,0.199 -0.05,0.3 l -3.023,11.61 -3.024,11.612 c -0.024,0.049 -0.015,0.112 0.021,0.161 0.037,0.051 0.102,0.087 0.175,0.087 l 3.678,0 4.26,0 c 0.073,0 0.15,-0.037 0.205,-0.093 0.056,-0.055 0.093,-0.129 0.093,-0.203 l 0,-3.426 0,-3.424 c 0,-0.67 0.272,-1.277 0.714,-1.717 0.442,-0.44 1.049,-0.713 1.718,-0.713 0.672,0 1.279,0.273 1.721,0.713 0.438,0.44 0.712,1.047 0.712,1.717 l 0,3.424 0,3.426 c 0,0.074 0.036,0.147 0.095,0.203 0.055,0.057 0.129,0.093 0.202,0.093 l 1.736,0 1.735,0 c 0.672,0 1.279,0.273 1.721,0.715 0.437,0.44 0.711,1.049 0.711,1.719"
           id="path75"
           inkscape:connector-curvature="0"
           style="fill:#5c5d60" /></g></g><g
       id="g77"><rect
         x="84.666"
         y="66.823997"
         transform="matrix(0.786,0.6182,-0.6182,0.786,73.4566,-33.4895)"
         width="0.87"
         height="45.064999"
         id="rect79"
         style="fill:#00abe6" /><rect
         x="134.16"
         y="68.026001"
         transform="matrix(0.4863,0.8738,-0.8738,0.4863,151.9078,-68.9536)"
         width="0.87099999"
         height="53.373001"
         id="rect81"
         style="fill:#00abe6" /><path
         stroke-miterlimit="10"
         d="M 127.495,122.616"
         id="path83"
         inkscape:connector-curvature="0"
         style="fill:none;stroke:#00abe6;stroke-width:0.55419999;stroke-miterlimit:10" /><path
         stroke-miterlimit="10"
         d="M 170.838,100.958"
         id="path85"
         inkscape:connector-curvature="0"
         style="fill:none;stroke:#00abe6;stroke-width:0.55419999;stroke-miterlimit:10" /><rect
         x="93.639"
         y="99.939003"
         transform="matrix(0.6634,0.7482,-0.7482,0.6634,123.6325,-29.0199)"
         width="0.86900002"
         height="45.949001"
         id="rect87"
         style="fill:#00abe6" /><path
         stroke-miterlimit="10"
         d="M 76.873,139.419"
         id="path89"
         inkscape:connector-curvature="0"
         style="fill:none;stroke:#00abe6;stroke-width:0.55419999;stroke-miterlimit:10" /><path
         stroke-miterlimit="10"
         d="M 92.826,127.535"
         id="path91"
         inkscape:connector-curvature="0"
         style="fill:none;stroke:#00abe6;stroke-width:0.55419999;stroke-miterlimit:10" /><rect
         x="86.110001"
         y="89.224998"
         transform="matrix(0.3219,0.9468,-0.9468,0.3219,156.1917,-38.7498)"
         width="38.071999"
         height="0.87"
         id="rect93"
         style="fill:#00abe6" /><rect
         x="71.181"
         y="107.121"
         transform="matrix(0.9999,0.0118,-0.0118,0.9999,1.2771,-1.0768)"
         width="40.784"
         height="0.39300001"
         id="rect95"
         style="fill:#00abe6" /><rect
         x="69.867996"
         y="114.002"
         transform="matrix(0.967,0.2548,-0.2548,0.967,32.4378,-21.5679)"
         width="59.222"
         height="0.87099999"
         id="rect97"
         style="fill:#00abe6" /><line
         stroke-miterlimit="10"
         x1="127.909"
         y1="121.981"
         x2="111.273"
         y2="107.684"
         id="line99"
         style="fill:none;stroke:#00abe6;stroke-width:0.55419999;stroke-miterlimit:10" /><rect
         x="142.364"
         y="76.695"
         transform="matrix(0.8004,0.5995,-0.5995,0.8004,89.5641,-65.2715)"
         width="0.87"
         height="50.333"
         id="rect101"
         style="fill:#00abe6" /><path
         stroke-miterlimit="10"
         d="M 119.109,165.102"
         id="path103"
         inkscape:connector-curvature="0"
         style="fill:none;stroke:#00abe6;stroke-width:0.55419999;stroke-miterlimit:10" /><path
         stroke-miterlimit="10"
         d="M 127.066,122.395"
         id="path105"
         inkscape:connector-curvature="0"
         style="fill:none;stroke:#00abe6;stroke-width:0.55419999;stroke-miterlimit:10" /><rect
         x="72.866997"
         y="148.332"
         transform="matrix(0.8593,0.5115,-0.5115,0.8593,89.4543,-27.6038)"
         width="44.051998"
         height="0.87099999"
         id="rect107"
         style="fill:#00abe6" /><rect
         x="58.235001"
         y="122.176"
         transform="matrix(0.1802,0.9836,-0.9836,0.1802,181.2933,27.7028)"
         width="31.584999"
         height="0.87"
         id="rect109"
         style="fill:#00abe6" /><rect
         x="76.737999"
         y="75.649002"
         transform="matrix(0.9299,0.3679,-0.3679,0.9299,39.2359,-21.9446)"
         width="0.87099999"
         height="32.569"
         id="rect111"
         style="fill:#00abe6" /><rect
         x="90.815002"
         y="65.736"
         transform="matrix(0.3471,0.9378,-0.9378,0.3471,129.3735,-36.6309)"
         width="0.36300001"
         height="17.737"
         id="rect113"
         style="fill:#00abe6" /><rect
         x="97.818001"
         y="75.955002"
         transform="matrix(0.8928,0.4504,-0.4504,0.8928,45.982,-40.9474)"
         width="22.41"
         height="0.36199999"
         id="rect115"
         style="fill:#00abe6" /><rect
         x="82.608002"
         y="79.397003"
         transform="matrix(0.9962,0.0876,-0.0876,0.9962,7.3606,-8.5361)"
         width="36.618999"
         height="0.36300001"
         id="rect117"
         style="fill:#00abe6" /><rect
         x="115.12"
         y="80.686996"
         transform="matrix(0.9638,0.2665,-0.2665,0.9638,29.3593,-27.3129)"
         width="0.36300001"
         height="27.632999"
         id="rect119"
         style="fill:#00abe6" /><rect
         x="86.338997"
         y="133.67799"
         transform="matrix(0.0486,0.9988,-0.9988,0.0486,240.7808,14.9441)"
         width="52.414001"
         height="0.36199999"
         id="rect121"
         style="fill:#00abe6" /><rect
         x="121.594"
         y="53.287998"
         transform="matrix(0.0512,0.9987,-0.9987,0.0512,219.687,-22.6709)"
         width="0.36199999"
         height="101.994"
         id="rect123"
         style="fill:#00abe6" /><rect
         x="98.875999"
         y="76.453003"
         transform="matrix(0.9854,0.1703,-0.1703,0.9854,14.9328,-20.8256)"
         width="59.978001"
         height="0.36300001"
         id="rect125"
         style="fill:#00abe6" /><rect
         x="118.997"
         y="81.286003"
         transform="matrix(0.9999,0.0142,-0.0142,0.9999,1.1667,-1.9511)"
         width="38.922001"
         height="0.36199999"
         id="rect127"
         style="fill:#00abe6" /><rect
         x="152.901"
         y="91.528"
         transform="matrix(0.5958,0.8031,-0.8031,0.5958,140.474,-95.6984)"
         width="24.822001"
         height="0.36300001"
         id="rect129"
         style="fill:#00abe6" /><path
         stroke-miterlimit="10"
         d="M 128.178,120.247"
         id="path131"
         inkscape:connector-curvature="0"
         style="fill:none;stroke:#00abe6;stroke-width:0.2309;stroke-miterlimit:10" /><path
         stroke-miterlimit="10"
         d="M 118.778,81.621"
         id="path133"
         inkscape:connector-curvature="0"
         style="fill:none;stroke:#00abe6;stroke-width:0.2309;stroke-miterlimit:10" /><path
         stroke-miterlimit="10"
         d="M 128.372,121.981"
         id="path135"
         inkscape:connector-curvature="0"
         style="fill:none;stroke:#00abe6;stroke-width:0.2309;stroke-miterlimit:10" /><path
         stroke-miterlimit="10"
         d="M 79.288,136.856"
         id="path137"
         inkscape:connector-curvature="0"
         style="fill:none;stroke:#00abe6;stroke-width:0.2309;stroke-miterlimit:10" /><rect
         x="58.160999"
         y="133.282"
         transform="matrix(0.6288,0.7776,-0.7776,0.6288,138.0497,-22.2527)"
         width="68.343002"
         height="0.36300001"
         id="rect139"
         style="fill:#00abe6" /><path
         stroke-miterlimit="10"
         d="M 74.012,109.447"
         id="path141"
         inkscape:connector-curvature="0"
         style="fill:none;stroke:#00abe6;stroke-width:0.2309;stroke-miterlimit:10" /><path
         stroke-miterlimit="10"
         d="M 83.8,77.669"
         id="path143"
         inkscape:connector-curvature="0"
         style="fill:none;stroke:#00abe6;stroke-width:0.2309;stroke-miterlimit:10" /><rect
         x="84.352997"
         y="96.730003"
         transform="matrix(0.4962,0.8682,-0.8682,0.4962,141.3038,-49.6863)"
         width="58.222"
         height="0.36199999"
         id="rect145"
         style="fill:#00abe6" /><path
         d="m 116.805,161.582 c -0.851,1.648 -2.883,2.294 -4.533,1.438 -1.651,-0.854 -2.292,-2.882 -1.44,-4.533 0.856,-1.646 2.883,-2.294 4.535,-1.439 1.648,0.855 2.295,2.886 1.438,4.534 z"
         id="path147"
         inkscape:connector-curvature="0"
         style="fill:#00abe6" /><circle
         cx="127.682"
         cy="121.983"
         r="3.3640001"
         id="circle149"
         style="fill:#00abe6" /><circle
         cx="76.873001"
         cy="138.144"
         r="3.3640001"
         id="circle151"
         style="fill:#00abe6" /><path
         d="m 74.086,108.821 c -0.855,1.65 -2.886,2.294 -4.536,1.438 -1.652,-0.855 -2.294,-2.884 -1.438,-4.533 0.853,-1.646 2.883,-2.295 4.53,-1.438 1.653,0.855 2.296,2.883 1.444,4.533 z"
         id="path153"
         inkscape:connector-curvature="0"
         style="fill:#00abe6" /><path
         d="m 114.589,109.364 c -0.853,1.647 -2.883,2.291 -4.535,1.437 -1.65,-0.851 -2.292,-2.882 -1.438,-4.532 0.854,-1.648 2.883,-2.292 4.535,-1.441 1.648,0.856 2.293,2.886 1.438,4.536 z"
         id="path155"
         inkscape:connector-curvature="0"
         style="fill:#00abe6" /><path
         d="m 175.693,103.224 c -0.855,1.648 -2.885,2.294 -4.535,1.438 -1.651,-0.853 -2.294,-2.883 -1.439,-4.53 0.854,-1.652 2.883,-2.294 4.534,-1.443 1.65,0.855 2.294,2.885 1.44,4.535 z"
         id="path157"
         inkscape:connector-curvature="0"
         style="fill:#00abe6" /><path
         d="m 160.754,83.137 c -0.855,1.65 -2.883,2.291 -4.534,1.438 -1.65,-0.853 -2.297,-2.883 -1.44,-4.53 0.857,-1.65 2.883,-2.297 4.536,-1.443 1.65,0.858 2.292,2.89 1.438,4.535 z"
         id="path159"
         inkscape:connector-curvature="0"
         style="fill:#00abe6" /><path
         d="m 102.303,73.075 c -0.854,1.651 -2.883,2.297 -4.535,1.44 -1.651,-0.857 -2.294,-2.883 -1.441,-4.532 0.855,-1.65 2.881,-2.298 4.533,-1.444 1.651,0.858 2.295,2.889 1.443,4.536 z"
         id="path161"
         inkscape:connector-curvature="0"
         style="fill:#00abe6" /><path
         d="m 85.665,79.227 c -0.854,1.652 -2.883,2.296 -4.535,1.442 -1.651,-0.856 -2.292,-2.883 -1.437,-4.532 0.851,-1.651 2.88,-2.294 4.532,-1.441 1.651,0.855 2.294,2.882 1.44,4.531 z"
         id="path163"
         inkscape:connector-curvature="0"
         style="fill:#00abe6" /></g></g></svg>